<?xml version="1.0" standalone="no"?>
<!DOCTYPE svg PUBLIC "-//W3C//DTD SVG 20010904//EN"
 "http://www.w3.org/TR/2001/REC-SVG-20010904/DTD/svg10.dtd">
<svg version="1.0" xmlns="http://www.w3.org/2000/svg"
 width="16.000000pt" height="16.000000pt" viewBox="0 0 16.000000 16.000000"
 preserveAspectRatio="xMidYMid meet">
<metadata>
Created by potrace 1.11, written by Peter Selinger 2001-2013
</metadata>
<g transform="translate(0.000000,16.000000) scale(0.001563,-0.001563)"
fill="#000000" stroke="none">
<path d="M0 9508 c0 -403 4 -728 8 -722 10 16 124 114 132 114 6 0 -7 -85 -46
-305 -5 -28 -1 -33 73 -81 43 -28 95 -59 116 -69 20 -9 37 -20 37 -24 0 -3 16
-15 35 -25 19 -11 35 -22 35 -27 0 -4 -77 -10 -170 -14 l-170 -8 -5 -26 c-3
-14 -10 -39 -15 -56 -25 -87 -31 -230 -28 -703 l3 -493 90 76 c50 42 96 82
103 89 10 10 8 22 -9 62 -32 75 -58 132 -97 212 -19 40 -33 75 -30 77 3 3 60
-32 127 -77 173 -117 175 -118 189 -118 7 0 29 15 48 34 65 63 195 168 201
162 6 -6 -24 -206 -42 -274 -7 -30 -11 -59 -9 -65 3 -7 37 -32 75 -57 38 -25
80 -54 94 -65 13 -11 41 -31 60 -45 93 -65 99 -61 -94 -58 l-174 3 -13 -45
c-7 -25 -21 -102 -31 -173 -9 -70 -21 -126 -26 -124 -5 1 -20 29 -33 60 -12
32 -34 81 -47 110 -31 65 -62 137 -70 160 -6 15 -23 17 -162 17 l-155 0 0
-277 0 -278 28 -17 c15 -9 65 -44 112 -78 47 -33 98 -68 113 -78 22 -14 159
-113 227 -165 9 -7 42 -30 75 -52 32 -22 77 -55 99 -74 22 -18 51 -37 63 -42
13 -5 23 -13 23 -18 0 -5 8 -12 17 -15 10 -3 29 -16 43 -29 21 -19 129 -98
213 -157 23 -16 165 -119 207 -151 14 -10 61 -45 105 -76 44 -32 88 -66 97
-75 10 -10 22 -18 27 -18 4 0 19 -10 33 -23 13 -12 56 -44 94 -70 38 -27 89
-64 114 -83 25 -19 65 -47 90 -63 25 -17 58 -40 74 -53 16 -12 37 -27 46 -33
24 -14 113 -77 200 -140 41 -30 115 -82 164 -116 49 -34 94 -66 100 -70 30
-25 482 -315 536 -345 19 -10 37 -22 40 -25 3 -3 24 -17 46 -30 23 -13 68 -40
99 -59 32 -19 83 -49 114 -66 31 -17 99 -55 151 -84 52 -29 127 -69 165 -87
39 -18 77 -37 85 -42 40 -24 280 -132 360 -161 19 -8 40 -17 46 -21 13 -10
166 -65 264 -94 41 -12 82 -25 90 -29 10 -4 22 5 35 26 43 72 86 145 111 193
14 28 43 79 64 115 21 36 48 83 59 105 12 22 36 65 54 97 17 31 45 80 61 110
16 29 32 55 36 58 4 3 19 30 34 60 103 212 269 437 435 589 120 110 326 245
422 276 30 10 60 22 66 27 18 15 214 68 313 85 117 21 479 21 620 0 212 -31
396 -71 625 -137 174 -51 209 -62 219 -68 12 -7 130 -49 251 -88 44 -14 85
-30 90 -34 6 -4 28 -13 50 -20 22 -7 63 -23 90 -35 28 -13 70 -30 95 -38 58
-19 222 -87 235 -97 6 -4 33 -15 61 -25 28 -10 59 -24 69 -31 18 -14 18 -16
-6 -61 -50 -97 -89 -169 -101 -188 -30 -45 -61 -100 -102 -178 -24 -45 -64
-116 -90 -157 -25 -41 -55 -95 -67 -120 -11 -25 -31 -67 -44 -95 -31 -64 -65
-244 -65 -341 0 -79 21 -231 46 -328 8 -32 13 -60 11 -62 -5 -5 -161 58 -262
106 -27 13 -158 67 -220 91 -27 11 -66 28 -85 38 -19 11 -55 25 -80 31 -24 7
-66 23 -92 36 -26 13 -52 24 -58 24 -6 0 -35 11 -63 24 -29 13 -72 31 -97 40
-25 8 -97 33 -160 56 -63 23 -149 52 -192 65 -42 13 -85 28 -97 34 -11 6 -60
20 -108 31 -48 12 -99 25 -113 30 -14 6 -74 22 -135 36 -311 72 -609 102 -845
84 -141 -11 -345 -44 -365 -59 -5 -4 -40 -18 -77 -30 -97 -32 -289 -125 -308
-150 -3 -3 -32 -24 -64 -46 -128 -86 -306 -270 -411 -425 -25 -36 -63 -92 -86
-124 -23 -32 -62 -98 -86 -145 -25 -47 -50 -93 -57 -101 -6 -8 -23 -35 -36
-60 -13 -25 -37 -67 -52 -95 -15 -27 -42 -76 -59 -108 -37 -66 -33 -66 -166
-21 -39 14 -75 24 -80 23 -7 -2 -55 17 -108 41 -34 16 -168 70 -220 90 -61 21
-409 193 -520 255 -44 25 -97 52 -117 61 -21 9 -38 20 -38 25 0 5 -6 9 -12 10
-7 0 -33 14 -58 29 -25 16 -70 43 -100 60 -64 35 -93 54 -210 128 -47 30 -112
72 -145 93 -33 21 -66 43 -72 49 -7 6 -30 20 -50 33 -21 12 -63 39 -93 60 -30
20 -111 76 -180 122 -69 47 -152 106 -185 130 -33 24 -77 54 -97 66 -21 13
-38 26 -38 31 0 4 -5 8 -10 8 -6 0 -32 16 -58 35 -169 128 -239 178 -252 183
-13 5 -66 45 -117 87 -7 6 -53 39 -103 75 -51 36 -116 83 -146 105 -29 22 -70
51 -90 65 -20 14 -50 37 -67 51 -18 14 -61 46 -97 70 -36 25 -74 52 -85 61
-36 30 -109 84 -185 136 -41 29 -87 61 -103 73 l-27 21 2 -978 3 -978 35 -23
c19 -12 40 -26 45 -31 6 -4 28 -21 50 -37 21 -17 46 -36 55 -43 27 -24 294
-215 505 -362 55 -38 118 -83 140 -99 22 -17 56 -39 75 -51 19 -11 62 -40 95
-65 33 -25 70 -49 82 -54 11 -6 24 -14 27 -19 3 -6 32 -25 64 -42 31 -18 59
-36 62 -40 3 -4 41 -30 85 -56 44 -27 91 -57 105 -67 47 -34 185 -118 235
-144 28 -14 57 -31 65 -38 8 -6 35 -23 60 -36 25 -13 47 -27 50 -30 7 -8 203
-111 355 -187 246 -123 280 -139 335 -157 30 -10 64 -24 75 -30 11 -7 45 -20
75 -29 30 -10 64 -22 75 -28 65 -36 250 -87 264 -72 5 5 37 61 72 124 34 63
88 158 119 211 32 53 61 105 64 117 4 12 13 28 19 34 7 7 23 33 36 58 14 25
32 56 42 70 9 14 34 52 55 85 21 33 64 90 96 126 56 65 71 88 45 73 -8 -5 -8
-3 2 9 7 9 17 15 21 12 4 -2 15 4 25 15 10 11 15 20 10 20 -4 0 -2 7 5 15 7 8
16 12 21 9 5 -2 38 22 74 56 35 33 68 60 72 60 5 0 23 14 41 31 17 16 32 27
32 23 0 -4 10 2 23 13 12 11 45 33 72 48 28 15 55 30 60 34 23 17 198 83 290
110 138 41 246 53 480 53 285 0 379 -11 675 -81 112 -26 301 -76 320 -84 8 -4
53 -18 100 -31 81 -24 232 -76 275 -95 11 -5 38 -15 60 -21 42 -12 207 -75
237 -91 10 -5 82 -34 160 -64 79 -31 161 -64 183 -74 81 -38 201 -89 223 -96
13 -4 67 -27 120 -52 53 -24 144 -64 202 -88 58 -24 128 -55 155 -68 28 -14
64 -29 80 -33 17 -3 37 -13 46 -20 8 -8 41 -23 72 -33 32 -11 70 -27 85 -35
15 -8 54 -26 87 -39 70 -29 316 -131 425 -177 41 -17 107 -42 145 -56 39 -13
79 -28 90 -34 42 -20 338 -124 495 -173 63 -19 158 -49 211 -66 53 -16 125
-35 160 -41 120 -21 152 -37 195 -92 58 -75 141 -179 169 -213 14 -16 34 -43
45 -60 23 -35 58 -80 82 -106 9 -10 25 -30 35 -46 30 -46 101 -139 117 -153 9
-7 16 -20 16 -29 0 -10 11 -28 25 -41 14 -13 25 -27 25 -32 0 -12 69 -109 102
-142 l28 -28 0 898 0 899 -30 35 c-17 19 -47 56 -68 83 -20 26 -104 130 -187
232 -259 318 -299 368 -324 405 -13 19 -31 42 -40 51 -9 9 -33 38 -53 65 -20
27 -65 86 -100 131 -35 45 -92 123 -128 173 -36 50 -82 112 -102 138 -21 26
-38 52 -38 58 0 7 -3 14 -8 16 -4 2 -20 23 -36 47 -16 25 -33 50 -38 55 -5 6
-23 34 -40 61 -17 28 -46 74 -64 102 -19 29 -34 55 -34 59 0 3 -9 19 -20 34
-21 29 -170 322 -170 333 0 4 -11 30 -24 59 -62 134 -117 358 -130 528 -4 62
-3 66 25 93 17 15 34 27 38 27 4 0 17 9 28 20 55 51 330 200 418 227 28 8 59
20 70 27 11 7 58 23 105 35 47 12 95 26 108 31 35 15 213 40 282 40 58 0 60
-1 77 -34 52 -101 318 -497 395 -587 13 -15 37 -46 53 -69 l30 -42 3 968 c1
532 0 970 -3 973 -8 7 -238 -19 -250 -29 -5 -4 -30 -14 -55 -21 -25 -7 -54
-19 -65 -26 -11 -7 -25 -13 -33 -13 -19 0 -165 -68 -247 -115 -95 -54 -265
-167 -265 -175 0 -4 -18 -19 -39 -33 -74 -49 -271 -241 -375 -365 -20 -24 -36
-41 -36 -38 0 3 25 50 56 104 31 53 79 140 107 192 27 52 55 102 62 110 7 8
36 60 65 115 29 55 59 107 65 115 7 8 16 25 19 37 6 18 2 25 -16 32 -13 5 -49
21 -80 35 -31 14 -60 26 -63 26 -3 0 -30 11 -58 24 -29 14 -81 36 -117 49 -36
14 -101 39 -145 57 -109 43 -214 80 -230 80 -7 0 -15 4 -17 10 -1 5 -37 19
-78 31 -41 11 -88 26 -105 34 -16 7 -77 27 -135 45 -58 17 -114 36 -125 40
-11 5 -47 14 -80 21 -33 6 -67 15 -75 19 -16 8 -214 53 -340 76 -41 8 -158 21
-259 29 -256 21 -486 3 -671 -51 -112 -33 -287 -103 -301 -120 -6 -8 -17 -14
-24 -14 -6 0 -37 -18 -69 -40 -31 -22 -61 -40 -65 -40 -5 0 -15 -7 -22 -16 -8
-9 -30 -27 -49 -40 -43 -28 -193 -173 -240 -233 -19 -23 -47 -56 -62 -72 -16
-16 -28 -33 -28 -37 0 -5 -8 -17 -17 -28 -10 -10 -24 -31 -32 -46 -8 -16 -16
-26 -19 -24 -2 3 20 48 49 101 30 52 83 149 119 214 36 64 86 153 111 197 90
155 229 402 229 406 0 3 22 43 50 89 27 46 61 107 76 134 41 77 135 236 161
271 13 17 23 34 23 38 0 8 56 79 125 160 67 78 241 235 312 282 32 21 60 40
63 43 9 10 193 98 251 121 85 32 266 77 361 90 114 16 440 14 563 -4 123 -18
361 -63 373 -70 5 -3 54 -15 108 -26 55 -12 115 -28 134 -35 19 -8 71 -24 115
-36 44 -11 85 -25 90 -29 6 -4 52 -20 103 -35 51 -15 105 -33 120 -41 15 -8
34 -14 43 -14 8 0 37 -11 65 -24 27 -13 67 -29 89 -36 22 -7 58 -21 80 -31 22
-10 65 -27 95 -38 30 -11 93 -36 140 -56 47 -20 112 -48 144 -61 93 -37 116
-48 116 -55 0 -7 -148 -279 -160 -294 -4 -5 -41 -71 -82 -145 -41 -74 -87
-157 -103 -183 -15 -26 -26 -50 -23 -52 2 -2 28 26 58 63 118 143 291 301 466
425 l54 38 0 883 0 883 -51 22 c-29 11 -57 21 -63 21 -6 0 -23 6 -38 14 -15 8
-107 40 -205 71 -98 31 -187 61 -198 66 -36 16 -208 61 -325 84 -63 13 -144
31 -180 39 -135 32 -245 41 -495 40 -267 -1 -329 -8 -496 -58 -114 -34 -235
-83 -279 -112 -19 -13 -38 -24 -42 -24 -7 0 -110 -67 -176 -115 -90 -65 -298
-280 -344 -355 -26 -43 -68 -95 -68 -83 0 5 8 20 17 33 10 14 30 50 46 80 15
30 45 84 66 120 21 36 50 85 63 110 41 76 77 140 148 265 38 66 96 170 129
230 34 61 74 133 91 160 16 28 55 97 88 155 32 58 71 126 86 153 l28 47 -288
-2 -288 -3 -12 -67 c-7 -37 -16 -73 -20 -79 -3 -6 -25 24 -49 68 l-43 78 -442
3 c-402 2 -441 1 -430 -14 8 -8 27 -23 44 -32 l31 -17 -95 -6 c-52 -4 -134 -7
-182 -8 -49 0 -88 -4 -88 -8 0 -22 -32 -208 -47 -271 l-16 -73 -25 53 c-14 29
-36 74 -49 101 -12 26 -34 71 -48 100 -14 28 -29 59 -34 67 -7 13 -36 14 -185
11 -97 -2 -176 1 -176 5 0 5 21 28 47 51 l48 42 -384 1 c-377 0 -384 0 -365
-19 11 -10 40 -31 64 -46 24 -15 48 -32 54 -37 6 -5 40 -29 76 -54 l65 -46
-186 7 -187 6 -5 -33 c-4 -18 -13 -87 -22 -153 -17 -123 -33 -184 -43 -155 -2
8 -24 56 -47 105 -24 50 -59 124 -79 166 l-35 77 -83 6 c-46 3 -129 9 -185 12
-57 4 -103 10 -103 14 0 5 33 33 73 63 127 95 160 87 -343 87 -412 0 -442 -1
-429 -17 8 -9 32 -28 54 -42 49 -31 235 -172 235 -177 0 -2 -80 -1 -179 3
-203 7 -184 15 -196 -87 -6 -50 -27 -167 -41 -230 -5 -24 -7 -23 -26 15 -11
22 -31 69 -45 105 -13 36 -28 70 -33 75 -4 6 -15 33 -24 60 -9 28 -20 56 -24
63 -6 8 -59 14 -180 19 -95 3 -171 9 -170 12 5 11 90 86 143 126 27 21 56 46
63 56 13 18 1 19 -437 19 l-449 0 -7 -42 c-8 -48 -19 -36 134 -143 56 -38 117
-82 137 -97 l37 -28 -176 0 c-175 0 -177 0 -182 -22 -6 -32 -46 -246 -52 -285
-6 -40 -15 -42 -30 -5 -6 15 -23 56 -38 92 -15 36 -38 88 -51 117 -13 29 -28
63 -34 78 l-10 25 -175 0 c-104 0 -175 4 -175 10 0 5 19 24 43 42 108 83 196
164 197 181 0 11 -8 32 -17 48 l-17 29 -431 -2 -430 -3 -11 -57 c-7 -32 -15
-82 -18 -110 l-6 -53 57 -35 c31 -19 79 -50 107 -69 28 -18 64 -40 81 -48 36
-19 56 -39 48 -47 -4 -3 -72 -6 -152 -6 -80 0 -155 -3 -167 -6 -17 -4 -23 -18
-32 -72 -14 -84 -43 -232 -49 -252 -2 -8 -41 59 -85 149 l-80 164 -92 -7 c-50
-4 -127 -11 -171 -15 -44 -5 -82 -7 -84 -5 -5 4 65 72 109 105 19 15 59 49 88
76 l52 50 -31 69 c-17 38 -35 76 -40 84 -5 8 -17 32 -26 53 l-16 37 -214 0
-213 0 0 -732z m6765 -119 c-36 -165 -46 -232 -38 -239 4 -4 31 -16 58 -26 28
-10 59 -23 70 -30 11 -6 50 -22 87 -34 37 -12 70 -25 73 -30 3 -5 -30 -16 -72
-26 -43 -9 -111 -25 -152 -35 -41 -11 -82 -19 -92 -19 -13 0 -20 -13 -29 -57
-28 -144 -55 -263 -60 -263 -4 0 -13 13 -21 30 -37 78 -124 242 -129 245 -3 1
-70 -6 -150 -16 -80 -10 -158 -19 -175 -19 l-30 1 40 36 c22 20 70 64 106 97
37 34 77 68 89 77 l23 15 -60 110 c-58 105 -93 177 -93 194 0 5 30 -7 68 -27
37 -19 106 -55 154 -80 l87 -45 38 33 c21 19 62 57 92 84 109 99 126 114 129
106 1 -5 -4 -42 -13 -82z m-1722 -243 l148 -98 48 38 c27 22 85 70 130 107 95
79 91 87 61 -111 -11 -74 -20 -142 -20 -152 0 -17 81 -75 160 -115 19 -10 37
-21 40 -26 3 -4 29 -19 58 -32 35 -16 49 -28 41 -33 -11 -6 -214 -22 -310 -23
l-36 -1 -17 -102 c-9 -57 -22 -134 -29 -173 l-12 -70 -30 56 c-17 30 -55 105
-85 167 l-55 112 -184 0 -184 0 89 73 c48 39 107 90 130 112 l43 40 -79 164
c-80 164 -91 192 -67 174 6 -5 79 -53 160 -107z m-1500 42 c18 -12 34 -25 37
-29 3 -4 36 -29 75 -55 38 -26 92 -65 120 -86 27 -21 55 -38 60 -38 6 0 37 22
70 50 33 27 63 50 66 50 7 0 42 28 97 78 14 12 27 21 28 19 2 -2 -7 -82 -21
-178 l-24 -174 22 -20 c12 -11 43 -34 68 -50 68 -43 241 -167 237 -169 -2 -2
-81 0 -177 3 -95 3 -176 4 -181 1 -4 -3 -13 -45 -19 -95 -7 -49 -19 -117 -26
-150 -8 -33 -15 -69 -17 -80 -3 -16 -9 -10 -28 25 -14 25 -34 68 -44 95 -10
28 -25 57 -32 66 -8 8 -14 19 -14 24 0 4 -14 36 -31 70 l-31 63 -96 6 c-53 3
-137 9 -185 12 l-89 6 35 32 c20 17 56 47 82 66 101 76 135 106 135 119 0 13
-19 56 -106 238 -42 88 -55 123 -48 123 3 0 20 -10 37 -22z m-1277 -95 c15
-13 32 -23 38 -23 6 0 22 -11 36 -25 14 -14 53 -45 87 -70 l62 -44 120 100
c105 89 142 113 133 86 -4 -12 -52 -310 -52 -323 0 -7 17 -22 38 -35 20 -12
42 -27 47 -33 6 -6 35 -29 65 -52 30 -22 73 -53 94 -70 22 -16 49 -34 60 -41
21 -12 13 -17 -24 -14 -107 8 -316 19 -319 16 -5 -5 -49 -232 -57 -292 -3 -29
-9 -53 -13 -53 -9 0 -83 166 -133 298 l-19 52 -57 1 c-31 1 -111 4 -176 8
l-119 6 100 86 c56 47 113 94 127 105 l27 19 -31 70 c-17 39 -40 86 -50 106
-11 20 -20 42 -20 48 0 6 -11 34 -25 63 -14 28 -25 56 -25 60 0 11 50 -18 86
-49z m-815 -61 c-9 -18 -51 -276 -51 -317 0 -17 21 -37 85 -81 47 -33 116 -81
153 -109 l67 -50 -177 -3 -177 -2 -7 -38 c-3 -20 -14 -75 -24 -122 -10 -47
-21 -107 -25 -134 -8 -59 -16 -53 -50 39 -15 39 -32 79 -39 90 -7 11 -21 43
-31 70 -10 28 -27 62 -37 77 l-18 27 -165 -6 c-142 -5 -165 -4 -165 9 0 11
186 179 234 210 7 5 4 21 -12 50 -35 68 -132 291 -128 296 3 2 73 -42 156 -97
86 -57 157 -98 163 -94 7 4 28 22 47 39 19 18 53 46 75 62 22 16 58 47 80 69
39 40 64 48 46 15z m5580 -959 c13 -16 12 -17 -3 -4 -10 7 -18 15 -18 17 0 8
8 3 21 -13z m-1075 -75 c-9 -34 -46 -260 -46 -283 0 -12 11 -25 28 -33 43 -19
150 -62 215 -87 l59 -22 -54 -16 c-29 -9 -97 -24 -151 -32 -144 -23 -142 -22
-156 -102 -7 -37 -16 -77 -21 -88 -5 -11 -14 -53 -20 -93 l-12 -72 -21 33
c-12 19 -47 82 -77 141 l-55 107 -55 -4 c-30 -3 -102 -12 -159 -21 -58 -9
-113 -16 -123 -14 -19 3 -19 4 0 23 11 11 39 36 62 55 23 19 71 62 107 96 l64
61 -36 66 c-19 37 -39 75 -44 85 -81 152 -85 176 -21 132 30 -21 205 -110 216
-110 4 0 15 -7 25 -16 17 -15 24 -11 110 67 51 46 106 99 122 117 36 37 52 41
43 10z m-1340 -350 c-14 -85 -28 -161 -30 -169 -5 -14 46 -51 177 -125 34 -20
79 -46 101 -59 l39 -23 -29 -5 c-16 -3 -93 -9 -171 -13 -87 -4 -146 -11 -151
-18 -13 -15 -29 -92 -42 -201 -13 -105 -19 -127 -29 -121 -4 3 -31 54 -60 113
-28 59 -62 128 -76 153 l-24 45 -180 3 c-100 1 -181 6 -181 9 0 8 8 15 149
131 56 46 101 86 101 90 0 4 -27 61 -61 127 -63 126 -102 215 -94 215 6 0 84
-48 99 -62 6 -5 40 -27 76 -50 36 -22 83 -53 105 -68 l40 -28 130 108 c72 60
131 107 133 105 2 -1 -8 -72 -22 -157z m-1863 65 c36 -27 91 -66 122 -88 32
-22 69 -50 82 -62 55 -52 60 -51 163 35 101 84 103 86 133 105 33 21 33 31 7
-159 -11 -82 -20 -156 -20 -165 0 -9 37 -42 83 -75 45 -32 87 -62 92 -67 28
-23 112 -78 128 -83 47 -17 1 -23 -165 -21 l-182 2 -13 -75 c-29 -172 -43
-256 -43 -265 0 -5 -26 42 -56 105 -31 63 -70 144 -87 180 -18 36 -36 68 -41
71 -5 4 -87 10 -182 14 -140 6 -174 10 -174 22 0 7 8 16 18 20 9 3 33 20 53
37 19 17 68 57 107 89 l71 57 -15 35 c-8 20 -46 101 -84 180 -39 80 -70 148
-70 150 0 10 11 4 73 -42z m-1318 -62 c61 -43 62 -44 101 -76 17 -13 55 -40
84 -60 l52 -35 42 32 c22 18 77 63 120 100 43 38 82 68 86 68 8 0 3 -32 -31
-223 -24 -132 -26 -126 46 -173 28 -17 99 -69 135 -97 8 -7 39 -30 68 -52 28
-21 52 -41 52 -43 0 -4 -77 0 -276 14 l-80 5 -12 -38 c-10 -31 -52 -282 -52
-309 0 -16 -29 20 -35 44 -6 24 -34 93 -98 236 -35 78 -29 76 -206 76 -87 0
-161 3 -164 7 -7 6 53 62 98 93 13 8 50 39 82 69 l60 54 -19 51 c-11 28 -30
72 -44 98 -13 26 -24 53 -24 60 0 7 -14 42 -30 76 -17 35 -30 66 -30 68 0 6
13 -2 75 -45z m6605 -985 c0 -2 -8 -10 -17 -17 -16 -13 -17 -12 -4 4 13 16 21
21 21 13z m-2923 -251 c-13 -71 -27 -138 -31 -147 -7 -14 6 -24 66 -51 40 -19
84 -38 98 -42 14 -4 50 -19 80 -32 l55 -25 -135 -33 c-74 -18 -151 -35 -170
-39 -40 -7 -38 -2 -77 -219 -10 -53 -22 -96 -27 -94 -5 2 -22 25 -37 53 -87
160 -117 209 -125 209 -63 -4 -184 -19 -184 -24 0 -3 -35 -7 -79 -7 l-78 -2
62 57 c34 31 90 82 124 113 l63 57 -74 148 c-40 81 -75 151 -77 156 -2 5 67
-28 154 -72 133 -69 160 -80 174 -69 18 14 87 77 176 162 34 33 61 52 63 44 1
-7 -8 -71 -21 -143z m-1846 -86 c11 -11 35 -27 52 -35 18 -9 57 -33 87 -55 83
-60 126 -87 142 -91 8 -2 35 14 59 34 24 20 80 67 124 104 96 81 96 81 60
-100 -33 -170 -33 -181 8 -202 40 -21 150 -87 157 -95 3 -3 26 -15 52 -28 83
-39 79 -47 -24 -55 -50 -3 -122 -6 -160 -6 -38 0 -77 -4 -87 -10 -14 -7 -23
-41 -41 -170 -13 -88 -28 -159 -33 -157 -9 3 -35 52 -118 222 -24 50 -48 94
-54 98 -5 4 -85 5 -176 1 -168 -7 -207 0 -157 27 12 7 28 17 34 23 6 6 33 29
60 51 27 22 59 50 71 62 13 13 32 27 43 33 11 6 20 16 20 23 0 7 -24 62 -54
122 -106 214 -120 259 -65 204z m-1357 -54 c66 -45 101 -70 106 -76 9 -11 100
-79 106 -79 3 0 20 -11 39 -25 l33 -26 34 23 c31 21 126 96 138 108 18 19 92
72 95 68 2 -2 -5 -60 -16 -129 -36 -216 -37 -224 -27 -227 4 -2 14 -9 21 -16
6 -6 28 -23 47 -36 19 -13 37 -27 40 -31 3 -3 17 -12 31 -20 44 -24 179 -124
179 -133 0 -4 -7 -6 -15 -3 -24 10 -336 10 -345 0 -8 -7 -30 -141 -45 -276 -4
-32 -11 -55 -16 -51 -9 5 -80 148 -143 290 l-28 60 -141 12 c-78 7 -161 12
-184 12 -62 0 -59 7 32 75 44 33 51 38 113 89 24 20 48 36 53 36 15 0 10 29
-11 68 -11 20 -47 96 -81 167 -34 72 -63 133 -66 138 -9 14 15 6 51 -18z
m5756 21 c0 -2 -8 -10 -17 -17 -16 -13 -17 -12 -4 4 13 16 21 21 21 13z m1151
-13 c13 -16 12 -17 -3 -4 -17 13 -22 21 -14 21 2 0 10 -8 17 -17z m-1271 -107
c0 -2 -8 -10 -17 -17 -16 -13 -17 -12 -4 4 13 16 21 21 21 13z m-180 -180 c0
-2 -8 -10 -17 -17 -16 -13 -17 -12 -4 4 13 16 21 21 21 13z m-70 -70 c0 -2 -8
-10 -17 -17 -16 -13 -17 -12 -4 4 13 16 21 21 21 13z m1908 -41 c-3 -3 -9 2
-12 12 -6 14 -5 15 5 6 7 -7 10 -15 7 -18z m62 -55 c6 -11 8 -20 6 -20 -3 0
-10 9 -16 20 -6 11 -8 20 -6 20 3 0 10 -9 16 -20z m-2090 -24 c0 -2 -8 -10
-17 -17 -16 -13 -17 -12 -4 4 13 16 21 21 21 13z m2135 -16 c10 -11 16 -20 13
-20 -3 0 -13 9 -23 20 -10 11 -16 20 -13 20 3 0 13 -9 23 -20z m60 -60 c10
-11 16 -20 13 -20 -3 0 -13 9 -23 20 -10 11 -16 20 -13 20 3 0 13 -9 23 -20z
m-2265 6 c0 -2 -8 -10 -17 -17 -16 -13 -17 -12 -4 4 13 16 21 21 21 13z m-50
-50 c0 -2 -8 -10 -17 -17 -16 -13 -17 -12 -4 4 13 16 21 21 21 13z m2375 -16
c10 -11 16 -20 13 -20 -3 0 -13 9 -23 20 -10 11 -16 20 -13 20 3 0 13 -9 23
-20z m-5126 -660 c-10 -58 -23 -118 -29 -134 -20 -57 -13 -81 28 -103 20 -11
48 -24 62 -28 14 -4 43 -16 65 -25 23 -10 60 -25 83 -32 73 -22 61 -31 -84
-59 -95 -18 -214 -47 -214 -52 0 -1 -11 -69 -25 -151 -14 -83 -25 -151 -25
-153 0 -14 -21 2 -33 25 -84 162 -130 248 -132 251 -2 2 -41 -4 -87 -12 -46
-9 -110 -19 -143 -22 -33 -3 -76 -9 -95 -12 l-35 -5 46 43 c25 24 74 69 108
99 105 92 103 89 95 113 -3 12 -33 73 -66 136 -92 176 -92 169 10 114 190
-101 214 -113 226 -113 7 0 53 37 102 83 103 97 158 146 161 144 1 -1 -7 -49
-18 -107z m2612 -1317 c13 -16 12 -17 -3 -4 -10 7 -18 15 -18 17 0 8 8 3 21
-13z m-1921 -47 c0 -2 -8 -10 -17 -17 -16 -13 -17 -12 -4 4 13 16 21 21 21 13z
m2031 -63 c13 -16 12 -17 -3 -4 -17 13 -22 21 -14 21 2 0 10 -8 17 -17z
m-2141 -47 c0 -2 -8 -10 -17 -17 -16 -13 -17 -12 -4 4 13 16 21 21 21 13z
m2211 -23 c13 -16 12 -17 -3 -4 -10 7 -18 15 -18 17 0 8 8 3 21 -13z m-2281
-47 c0 -2 -8 -10 -17 -17 -16 -13 -17 -12 -4 4 13 16 21 21 21 13z m-60 -60
c0 -2 -8 -10 -17 -17 -16 -13 -17 -12 -4 4 13 16 21 21 21 13z m-60 -60 c0 -2
-8 -10 -17 -17 -16 -13 -17 -12 -4 4 13 16 21 21 21 13z m-60 -59 c0 -2 -10
-12 -22 -23 l-23 -19 19 23 c18 21 26 27 26 19z m-60 -61 c0 -2 -8 -10 -17
-17 -16 -13 -17 -12 -4 4 13 16 21 21 21 13z m2821 -13 c13 -16 12 -17 -3 -4
-10 7 -18 15 -18 17 0 8 8 3 21 -13z m-2881 -46 c0 -2 -10 -12 -22 -23 l-23
-19 19 23 c18 21 26 27 26 19z m2951 -24 c13 -16 12 -17 -3 -4 -10 7 -18 15
-18 17 0 8 8 3 21 -13z m-3021 -46 c0 -2 -10 -12 -22 -23 l-23 -19 19 23 c18
21 26 27 26 19z m-50 -51 c0 -2 -8 -10 -17 -17 -16 -13 -17 -12 -4 4 13 16 21
21 21 13z m-70 -69 c0 -2 -10 -12 -22 -23 l-23 -19 19 23 c18 21 26 27 26 19z
m-120 -121 c0 -2 -8 -10 -17 -17 -16 -13 -17 -12 -4 4 13 16 21 21 21 13z
m-70 -70 c0 -2 -8 -10 -17 -17 -16 -13 -17 -12 -4 4 13 16 21 21 21 13z m-110
-110 c0 -2 -8 -10 -17 -17 -16 -13 -17 -12 -4 4 13 16 21 21 21 13z m-260
-117 c15 -28 5 -23 -15 7 -9 15 -12 23 -6 20 6 -4 16 -16 21 -27z m115 -27
l-28 -27 24 31 c13 17 26 30 28 27 3 -2 -8 -16 -24 -31z m-60 -59 c-18 -17
-18 -17 -6 0 12 15 11 21 -5 40 l-18 22 24 -22 c24 -23 24 -23 5 -40z m-45
-46 c0 -2 -10 -12 -22 -23 l-23 -19 19 23 c18 21 26 27 26 19z m4430 -17 c0
-5 -4 -10 -10 -10 -5 0 -10 5 -10 10 0 6 5 10 10 10 6 0 10 -4 10 -10z m-4490
-43 c0 -2 -12 -14 -27 -28 l-28 -24 24 28 c23 25 31 32 31 24z m-190 -190 c0
-2 -10 -12 -22 -23 l-23 -19 19 23 c18 21 26 27 26 19z"/>
<path d="M550 10236 c0 -7 92 -61 127 -75 29 -12 35 -10 68 12 20 14 43 34 51
46 l15 21 -130 0 c-72 0 -131 -2 -131 -4z"/>
<path d="M3805 1329 c-204 -31 -253 -42 -346 -74 -114 -39 -284 -121 -339
-164 -19 -14 -48 -35 -63 -44 -36 -23 -70 -52 -185 -160 -55 -51 -212 -232
-212 -245 0 -7 -47 -74 -98 -142 -11 -14 -39 -61 -62 -105 -24 -44 -70 -124
-102 -178 -32 -55 -58 -102 -58 -105 0 -4 -14 -27 -30 -52 -16 -25 -30 -48
-30 -52 0 -14 455 -9 507 5 37 9 47 9 50 0 4 -10 85 -13 363 -13 l359 0 3 38
3 37 55 -4 c68 -4 245 -34 325 -55 53 -14 277 -15 2020 -15 1078 0 1953 3
1945 6 -8 3 -28 12 -45 19 -16 8 -68 27 -115 43 -89 31 -190 70 -300 116 -36
15 -96 40 -135 55 -127 51 -230 95 -235 101 -3 3 -27 13 -55 23 -27 10 -74 29
-103 42 -29 13 -55 24 -58 24 -3 0 -33 13 -67 29 -34 15 -100 45 -147 65 -47
21 -114 50 -150 66 -36 15 -76 31 -90 35 -14 4 -36 15 -50 25 -14 9 -51 25
-82 34 -32 10 -60 21 -63 26 -2 4 -33 18 -67 31 -35 12 -72 29 -84 36 -11 7
-45 21 -75 32 -31 10 -64 24 -75 30 -10 5 -73 31 -139 57 -66 25 -133 52 -150
60 -38 17 -179 68 -265 95 -36 12 -69 24 -75 29 -35 25 -461 146 -725 204
-184 41 -616 67 -755 45z"/>
<path d="M0 561 l0 -561 993 1 c545 0 985 3 977 6 -8 3 -42 18 -75 33 -33 15
-78 32 -100 39 -46 14 -44 13 -195 82 -63 29 -142 68 -175 86 -33 19 -85 45
-115 59 -30 14 -61 31 -70 38 -8 7 -32 19 -53 26 -20 6 -43 18 -50 25 -8 7
-36 25 -63 39 -27 15 -74 42 -104 61 -30 19 -66 39 -79 45 -12 6 -46 25 -75
43 -66 44 -129 83 -211 132 -37 22 -72 45 -79 51 -6 6 -32 23 -56 39 -63 39
-409 271 -442 296 l-28 21 0 -561z"/>
</g>
</svg>
