<?xml version="1.0" standalone="no"?>
<!DOCTYPE svg PUBLIC "-//W3C//DTD SVG 20010904//EN"
 "http://www.w3.org/TR/2001/REC-SVG-20010904/DTD/svg10.dtd">
<svg version="1.0" xmlns="http://www.w3.org/2000/svg"
 width="1024.000000pt" height="1024.000000pt" viewBox="0 0 1024.000000 1024.000000"
 preserveAspectRatio="xMidYMid meet">
<metadata>
Created by potrace 1.11, written by Peter Selinger 2001-2013
</metadata>
<g transform="translate(0.000000,1024.000000) scale(0.100000,-0.100000)"
fill="#000000" stroke="none">
<path d="M4823 9763 c-13 -2 -23 -8 -23 -13 0 -5 -79 -10 -176 -12 -148 -2
-178 -6 -188 -19 -9 -13 -34 -17 -120 -21 -84 -3 -111 -7 -120 -19 -8 -12 -35
-17 -100 -21 -64 -3 -92 -9 -100 -20 -7 -10 -35 -17 -80 -20 -44 -4 -74 -11
-80 -20 -6 -8 -33 -17 -60 -20 -28 -3 -55 -12 -60 -20 -6 -8 -33 -17 -60 -20
-28 -3 -55 -12 -60 -20 -6 -8 -33 -17 -60 -20 -29 -4 -55 -13 -61 -22 -7 -9
-24 -16 -39 -16 -24 0 -64 -16 -76 -31 -3 -3 -22 -9 -43 -13 -21 -4 -41 -14
-44 -22 -3 -8 -19 -14 -39 -14 -23 0 -37 -6 -44 -20 -7 -13 -21 -20 -40 -20
-19 0 -34 -7 -42 -20 -8 -12 -24 -20 -40 -20 -17 0 -33 -8 -40 -20 -8 -12 -24
-20 -40 -20 -17 0 -33 -8 -40 -20 -8 -12 -24 -20 -40 -20 -17 0 -33 -8 -40
-20 -7 -11 -24 -20 -37 -20 -13 0 -34 -11 -47 -25 -13 -14 -32 -25 -44 -25
-11 0 -23 -7 -26 -15 -4 -8 -12 -15 -20 -15 -8 0 -19 -9 -26 -20 -7 -11 -24
-20 -37 -20 -13 0 -34 -11 -47 -25 -13 -14 -32 -25 -42 -25 -11 0 -22 -7 -26
-15 -3 -8 -11 -15 -18 -15 -7 0 -26 -13 -41 -30 -16 -16 -35 -30 -43 -30 -8 0
-14 -5 -14 -10 0 -6 -11 -15 -25 -20 -14 -5 -25 -14 -25 -20 0 -5 -6 -10 -14
-10 -8 0 -21 -9 -28 -19 -8 -11 -26 -25 -41 -32 -15 -7 -27 -16 -27 -21 0 -5
-11 -13 -25 -18 -14 -5 -25 -14 -25 -20 0 -5 -6 -10 -12 -10 -7 0 -39 -27 -71
-60 -31 -33 -69 -63 -83 -66 -15 -4 -29 -15 -31 -25 -3 -11 -12 -19 -19 -19
-8 0 -17 -7 -20 -15 -4 -8 -10 -15 -15 -15 -6 0 -70 -62 -145 -137 -168 -172
-164 -168 -164 -180 0 -6 -8 -13 -19 -16 -10 -2 -21 -16 -25 -31 -3 -14 -33
-52 -66 -83 -33 -32 -60 -61 -60 -65 0 -5 -7 -16 -16 -25 -37 -42 -64 -79 -64
-88 0 -6 -9 -16 -20 -23 -11 -7 -20 -17 -20 -22 0 -6 -8 -19 -17 -29 -29 -32
-40 -46 -53 -72 -7 -13 -21 -30 -32 -37 -10 -7 -18 -20 -18 -28 0 -8 -4 -14
-9 -14 -5 0 -15 -14 -22 -32 -7 -18 -21 -40 -31 -50 -10 -10 -18 -28 -18 -41
0 -12 -9 -28 -20 -35 -11 -7 -20 -18 -20 -26 0 -8 -6 -16 -14 -19 -7 -3 -16
-17 -20 -31 -4 -15 -15 -35 -26 -46 -11 -11 -20 -30 -20 -43 0 -12 -9 -28 -20
-35 -11 -7 -20 -21 -20 -32 0 -11 -3 -20 -7 -20 -9 0 -33 -49 -33 -67 0 -7 -3
-13 -7 -13 -9 0 -33 -49 -33 -67 0 -7 -3 -13 -7 -13 -11 0 -33 -50 -33 -72 0
-10 -9 -27 -20 -38 -11 -11 -20 -33 -20 -49 0 -16 -6 -31 -14 -34 -8 -3 -18
-23 -22 -44 -4 -21 -10 -40 -13 -43 -15 -12 -31 -52 -31 -76 0 -15 -7 -32 -16
-39 -9 -6 -18 -32 -22 -61 -3 -27 -12 -54 -20 -60 -8 -5 -17 -32 -20 -60 -3
-27 -12 -54 -20 -60 -8 -6 -17 -33 -20 -62 -2 -29 -8 -52 -12 -52 -13 0 -30
-60 -30 -108 0 -30 -5 -49 -17 -57 -12 -9 -18 -33 -21 -99 -2 -47 -8 -86 -13
-86 -14 0 -29 -73 -29 -147 0 -40 -4 -73 -9 -73 -17 0 -31 -116 -31 -256 0
-105 -3 -143 -12 -147 -19 -6 -19 -558 0 -565 9 -3 12 -41 12 -147 0 -142 13
-245 31 -245 5 0 9 -39 9 -87 0 -91 14 -163 30 -163 6 0 10 -23 10 -51 0 -58
18 -139 31 -139 5 0 9 -22 9 -50 0 -37 5 -55 20 -70 14 -14 20 -33 20 -65 0
-45 17 -95 32 -95 4 0 8 -16 8 -35 0 -37 18 -85 32 -85 4 0 8 -16 8 -35 0 -32
15 -71 31 -85 3 -3 9 -22 13 -43 4 -21 14 -41 22 -44 7 -3 14 -17 14 -32 0
-29 20 -81 32 -81 3 0 9 -18 13 -41 4 -22 13 -43 20 -45 7 -3 16 -21 20 -40 3
-19 13 -38 21 -41 7 -3 14 -16 14 -29 0 -13 9 -33 20 -44 11 -11 20 -29 20
-40 0 -11 9 -29 19 -39 10 -10 22 -33 26 -50 4 -17 12 -34 19 -38 7 -5 18 -23
25 -40 8 -18 17 -33 22 -33 5 0 9 -9 9 -20 0 -11 9 -25 20 -32 11 -7 20 -21
20 -30 0 -10 8 -26 18 -36 10 -10 24 -32 31 -50 7 -18 17 -32 22 -32 5 0 9 -9
9 -19 0 -11 8 -26 18 -33 9 -7 23 -26 30 -41 14 -32 23 -44 75 -99 20 -22 40
-51 43 -65 4 -13 13 -27 20 -30 8 -3 14 -10 14 -17 0 -6 17 -27 38 -47 21 -19
44 -49 51 -67 7 -17 20 -32 27 -32 8 0 14 -5 14 -12 0 -15 -10 -5 303 -320
151 -153 279 -278 285 -278 5 0 12 -6 15 -14 3 -7 17 -16 31 -20 14 -3 52 -33
84 -66 33 -33 67 -60 76 -60 9 0 16 -4 16 -8 0 -5 12 -14 27 -21 15 -7 33 -21
41 -32 7 -10 19 -19 26 -19 8 0 16 -6 19 -14 3 -7 18 -17 33 -20 16 -4 34 -16
42 -27 7 -10 19 -19 26 -19 8 0 16 -6 19 -14 3 -7 18 -17 33 -20 16 -4 34 -16
42 -27 7 -10 20 -19 28 -19 8 0 17 -6 20 -14 3 -8 20 -17 39 -20 18 -4 35 -13
38 -20 3 -7 18 -17 33 -20 16 -4 34 -16 42 -27 7 -11 25 -19 40 -19 16 0 32
-8 40 -20 7 -12 23 -20 40 -20 16 0 32 -8 40 -20 7 -12 23 -20 40 -20 16 0 32
-8 40 -20 7 -12 23 -20 40 -20 16 0 32 -8 40 -20 8 -14 23 -20 46 -20 20 0 36
-6 39 -14 3 -8 22 -18 41 -21 19 -4 37 -13 40 -21 3 -7 28 -16 56 -20 35 -5
54 -13 61 -25 7 -14 21 -19 49 -19 22 0 40 -3 40 -7 0 -13 53 -33 87 -33 18 0
33 -3 33 -7 0 -13 53 -33 87 -33 18 0 33 -3 33 -7 0 -15 55 -33 98 -33 30 0
49 -5 56 -16 8 -11 34 -18 82 -22 45 -3 73 -10 80 -21 9 -11 36 -16 108 -19
53 -2 96 -8 96 -12 0 -15 99 -30 190 -30 49 0 90 -4 92 -10 8 -24 179 -32 598
-29 387 4 430 6 442 21 11 14 36 17 141 20 104 2 131 6 140 19 9 12 35 17 101
21 68 3 92 9 101 21 9 13 28 17 79 17 58 0 100 11 116 31 3 3 29 9 59 11 31 3
59 12 65 20 6 8 33 17 60 20 28 3 55 12 60 20 6 8 33 17 60 20 28 3 55 12 60
20 6 8 34 18 61 21 28 4 55 14 61 22 6 8 25 15 42 15 21 0 35 7 42 20 6 11 21
20 33 20 25 0 77 21 77 32 0 3 18 9 41 13 22 4 43 13 45 20 3 7 21 16 40 20
19 3 37 12 40 20 3 7 21 16 40 20 19 3 37 12 40 20 3 7 21 16 40 20 19 3 37
12 40 20 3 8 22 17 41 21 19 4 37 13 40 20 3 8 11 14 19 14 8 0 19 9 26 20 8
12 24 20 40 20 15 0 33 8 40 19 8 11 26 23 42 27 15 3 30 13 33 20 3 8 11 14
19 14 7 0 19 9 26 19 8 11 26 23 42 27 15 3 30 13 33 20 3 8 11 14 19 14 7 0
19 9 26 19 8 11 26 23 42 27 15 3 30 13 33 20 3 8 10 14 17 14 6 0 28 18 48
40 20 21 49 42 63 46 15 4 29 13 32 20 3 8 10 14 15 14 6 0 37 27 70 60 32 33
63 60 68 60 4 0 18 11 31 25 13 13 28 25 33 25 5 0 23 16 42 35 18 19 35 35
39 35 3 0 57 53 121 118 163 167 184 190 184 199 0 4 12 19 25 32 14 13 25 27
25 31 0 4 27 37 61 72 82 86 85 90 94 117 4 13 25 40 46 59 21 20 39 42 39 48
0 7 6 14 14 17 7 3 17 18 20 33 4 16 16 34 27 42 10 7 19 17 19 23 0 5 9 18
20 29 11 11 20 28 20 38 0 9 9 23 20 30 11 7 20 18 20 26 0 8 6 16 14 19 7 3
17 18 20 33 4 16 16 34 27 42 11 7 19 25 19 40 0 16 8 32 20 40 11 7 20 18 20
26 0 8 7 16 14 19 8 3 18 22 21 41 4 19 13 37 20 40 7 2 16 19 20 36 4 18 16
41 26 51 10 10 19 28 19 39 0 11 9 29 20 40 11 11 20 31 20 44 0 13 7 26 14
29 8 3 18 23 22 44 4 21 10 40 13 43 13 11 31 51 31 70 0 11 9 29 20 40 11 11
20 32 20 46 0 15 7 32 15 38 8 6 18 34 22 61 3 28 13 55 21 61 8 5 17 32 20
60 3 27 12 54 20 60 8 5 17 32 20 60 3 27 11 54 19 59 7 6 16 35 20 65 3 30 9
57 12 60 17 14 31 67 31 120 0 33 4 60 9 60 17 0 31 62 31 133 0 54 4 73 17
82 14 11 18 35 21 141 3 76 9 132 15 136 20 12 25 121 26 513 1 372 -8 526
-29 533 -6 2 -10 44 -10 92 0 91 -15 190 -30 190 -4 0 -10 43 -12 96 -3 72 -8
99 -19 108 -11 7 -18 35 -21 80 -4 48 -11 74 -22 82 -11 7 -16 26 -16 56 0 43
-18 98 -32 98 -5 0 -8 16 -8 35 0 37 -18 85 -32 85 -4 0 -8 16 -8 35 0 37 -18
85 -32 85 -4 0 -8 16 -8 35 0 21 -8 43 -19 54 -10 10 -21 39 -25 65 -4 26 -14
50 -22 53 -8 3 -14 16 -14 29 0 13 -9 33 -20 44 -11 11 -20 33 -20 50 0 19 -7
34 -20 42 -11 7 -20 22 -20 33 0 25 -22 75 -32 75 -5 0 -8 6 -8 13 0 18 -24
67 -32 67 -5 0 -8 9 -8 20 0 11 -9 25 -20 32 -12 8 -20 24 -20 40 0 15 -8 33
-19 40 -11 8 -23 26 -27 42 -3 15 -12 30 -19 33 -7 2 -16 20 -20 39 -3 19 -13
38 -21 41 -7 3 -14 11 -14 19 0 7 -9 19 -19 26 -11 8 -23 26 -27 42 -3 15 -13
30 -20 33 -8 3 -14 11 -14 19 0 7 -9 19 -19 26 -11 8 -23 26 -27 42 -3 15 -13
30 -20 33 -8 3 -14 11 -14 19 0 7 -8 19 -18 26 -10 7 -24 27 -31 45 -7 17 -19
34 -27 37 -8 3 -14 11 -14 17 0 7 -25 37 -55 66 -30 30 -58 65 -61 79 -3 13
-15 29 -25 35 -11 5 -19 15 -19 21 0 6 -33 44 -74 84 -40 40 -76 80 -79 88 -4
9 -13 16 -22 16 -8 0 -15 7 -15 16 0 9 -9 18 -20 21 -11 3 -20 12 -20 20 0 8
-9 17 -20 20 -11 3 -20 12 -20 20 0 8 -9 17 -20 20 -11 3 -20 12 -20 20 0 8
-9 17 -20 20 -11 3 -20 12 -20 19 0 8 -7 17 -15 21 -9 3 -51 41 -94 84 -44 44
-82 79 -85 79 -4 0 -22 15 -41 34 -19 19 -44 37 -56 41 -12 4 -38 25 -57 46
-20 21 -42 39 -48 39 -7 0 -14 6 -17 14 -3 7 -17 16 -31 20 -15 4 -44 24 -65
46 -21 22 -44 40 -50 40 -6 0 -14 7 -17 15 -4 8 -15 15 -25 15 -11 0 -29 11
-41 25 -12 14 -30 25 -40 25 -10 0 -18 4 -18 8 0 5 -16 14 -35 22 -19 7 -36
19 -39 25 -2 7 -17 16 -32 19 -16 4 -34 16 -42 27 -7 10 -22 19 -33 19 -10 0
-19 4 -19 8 0 5 -16 14 -35 22 -19 7 -36 19 -39 25 -2 7 -20 15 -39 19 -19 4
-38 13 -41 21 -3 8 -21 17 -40 20 -19 4 -37 13 -40 20 -3 8 -21 17 -40 20 -19
4 -37 13 -40 20 -3 8 -21 17 -40 20 -19 4 -37 13 -40 20 -3 8 -26 17 -53 21
-29 4 -53 14 -61 25 -8 12 -25 19 -46 19 -20 0 -36 6 -39 14 -3 8 -23 18 -44
22 -21 4 -40 10 -43 13 -14 16 -53 31 -85 31 -19 0 -35 3 -35 8 0 12 -53 32
-87 32 -18 0 -33 3 -33 8 0 14 -55 32 -98 32 -30 0 -49 5 -57 16 -7 10 -32 19
-66 22 -30 2 -56 8 -59 11 -10 14 -89 31 -138 31 -38 0 -53 4 -61 17 -8 15
-28 18 -125 21 -64 3 -116 8 -116 12 0 17 -106 30 -246 30 -119 0 -146 3 -150
15 -5 13 -43 15 -263 14 -141 -1 -266 -4 -278 -6z"/>
</g>
</svg>
